<?xml version="1.0" encoding="utf-8"?>
<!-- Generator: Adobe Illustrator 16.0.0, SVG Export Plug-In . SVG Version: 6.00 Build 0)  -->
<!DOCTYPE svg PUBLIC "-//W3C//DTD SVG 1.1//EN" "http://www.w3.org/Graphics/SVG/1.1/DTD/svg11.dtd">
<svg version="1.1" id="Layer_1" xmlns="http://www.w3.org/2000/svg" xmlns:xlink="http://www.w3.org/1999/xlink" x="0px" y="0px"
	 width="38.957px" height="48px" viewBox="0 0 38.957 48" enable-background="new 0 0 38.957 48" xml:space="preserve">
<g>
	<path fill="#FFFFFF" d="M1.953,13.312c0,0,1.027-3.497,6.282-7.865c3.906-3.251,5.826-3.989,7.073-4.664L15.828,0l-1.226,0.144
		c0,0-4.304,1.681-8.292,6.126C3.124,9.812,1.953,13.312,1.953,13.312L1.953,13.312z"/>
	<path fill="#FFFFFF" d="M35.949,9.316L30.543,7.21c-0.779,0.245-1.571,0.514-2.388,0.823C16.179,12.606,4.949,22.767,3.081,30.721
		c-0.496,2.118-0.278,3.866,0.535,5.206l0.382,0.617c1.932,2.762,2.647,3.495,4.833,5.451c-1.412-1.361-1.956-3.367-1.339-5.996
		c1.797-7.66,12.612-17.445,24.152-21.846c0.354-0.138,0.703-0.263,1.045-0.385L35.949,9.316L35.949,9.316z"/>
	<path fill="#FFFFFF" d="M15.562,5.945l-3.209-0.599C6.168,9.568,1.354,15.051,0.271,19.655c-0.094,0.4-0.159,0.786-0.193,1.152
		c-0.057,0.88-0.076,2.06-0.079,2.943c0.076,1.794,0.122,2.044,0.543,4.457l0.233,0.986c-0.266-1.032-0.257-2.25,0.064-3.619
		c1.241-5.282,6.783-11.579,13.89-16.408L15.562,5.945L15.562,5.945z"/>
	<path fill="#FFFFFF" d="M18.976,42.277c1.208-5.147,8.107-11.629,15.776-15.006l3.025-4.854l-5.88-1.574
		c-9.501,4.289-17.971,12.309-19.472,18.701c-0.761,3.239,0.413,5.49,2.956,6.536c0.514,0.212,1.216,0.457,1.736,0.651
		c2.191,0.649,2.754,0.776,5.031,1.126c0.371,0.042,0.823,0.075,1.25,0.105C19.994,47.627,18.19,45.623,18.976,42.277L18.976,42.277
		z"/>
	<path fill="#FFFFFF" d="M32.386,44.276c-0.202-0.301-0.266-0.692-0.15-1.18c0-0.012,0.007-0.024,0.01-0.037
		c0.003-0.012,0.009-0.018,0.009-0.029c0.417-1.571,2.461-3.51,4.774-4.585l1.929-3.95l-4.403-0.887
		c-4.708,2.531-8.683,6.534-9.445,9.789c-0.912,3.876,3.074,5.213,8.903,3.001l0.046-0.018c0.657-0.252,0.703-0.27,1.877-0.81
		c0.062-0.024,0.11-0.049,0.156-0.066C34.302,45.583,32.89,45.161,32.386,44.276L32.386,44.276z"/>
</g>
</svg>
