<?xml version="1.0" encoding="utf-8"?>
<!-- Generator: Adobe Illustrator 16.0.0, SVG Export Plug-In . SVG Version: 6.00 Build 0)  -->
<!DOCTYPE svg PUBLIC "-//W3C//DTD SVG 1.1//EN" "http://www.w3.org/Graphics/SVG/1.1/DTD/svg11.dtd">
<svg version="1.1" id="Layer_1" xmlns="http://www.w3.org/2000/svg" xmlns:xlink="http://www.w3.org/1999/xlink" x="0px" y="0px"
	 width="495.61px" height="104.71px" viewBox="0 0 495.61 104.71" enable-background="new 0 0 495.61 104.71" xml:space="preserve">
<g>
	<path fill="#FFFFFF" d="M82.12,61.85c2.877,1.75,8.836,3.702,13.459,3.702c4.729,0,6.68-1.543,6.68-4.111
		c0-2.671-1.54-3.902-7.295-5.855C84.482,52.091,80.477,46.44,80.578,40.48c0-9.455,8.015-16.543,20.447-16.543
		c5.857,0,10.995,1.439,14.078,2.979l-2.671,10.791c-2.261-1.234-6.679-2.875-10.893-2.875c-3.801,0-5.961,1.536-5.961,4.002
		c0,2.469,1.955,3.702,8.121,5.858c9.553,3.288,13.459,8.22,13.561,15.516c0,9.454-7.295,16.338-21.682,16.338
		c-6.574,0-12.434-1.538-16.233-3.595L82.12,61.85L82.12,61.85z"/>
	<path fill="#FFFFFF" d="M147.265,11.605v13.563h11.2v11.508h-11.2v18.185c0,6.065,1.542,8.841,6.166,8.841
		c2.157,0,3.185-0.103,4.625-0.412l0.103,11.818c-1.953,0.717-5.755,1.335-10.071,1.335c-5.032,0-9.246-1.748-11.816-4.316
		c-2.874-2.98-4.314-7.811-4.314-14.9v-20.55h-6.68V25.168h6.68v-9.352L147.265,11.605L147.265,11.605z"/>
	<path fill="#FFFFFF" d="M200.393,44.59c0-3.802-1.645-10.172-8.837-10.172c-6.578,0-9.25,6.062-9.66,10.172H200.393L200.393,44.59z
		 M181.996,55.276c0.413,6.472,6.889,9.556,14.182,9.556c5.344,0,9.658-0.719,13.871-2.157l2.057,10.584
		c-5.138,2.156-11.407,3.186-18.189,3.186c-17.056,0-26.815-9.866-26.815-25.586c0-12.744,7.909-26.817,25.378-26.817
		c16.235,0,22.398,12.636,22.398,25.07c0,2.67-0.308,5.035-0.513,6.166H181.996L181.996,55.276z"/>
	<path fill="#FFFFFF" d="M229.061,75.415V36.677h-6.681V25.168h6.681v-1.952c0-6.062,1.85-12.742,6.268-16.851
		c4.008-3.699,9.35-5.038,13.975-5.038c3.39,0,6.063,0.515,8.221,1.03l-0.615,12.019c-1.335-0.408-2.98-0.717-5.036-0.717
		c-5.14,0-7.297,4.004-7.297,8.941v2.566h10.072v11.508h-9.969v38.738H229.061L229.061,75.415z"/>
	<path fill="#FFFFFF" d="M291.947,51.679c-8.223,0-14.591,1.955-14.591,7.909c0,4.012,2.672,5.964,6.163,5.964
		c3.806,0,7.089-2.572,8.117-5.756c0.207-0.821,0.311-1.745,0.311-2.672V51.679L291.947,51.679z M307.05,63.291
		c0,4.726,0.206,9.348,0.822,12.124h-14.077l-0.923-5.036h-0.309c-3.289,4.008-8.428,6.167-14.386,6.167
		c-10.173,0-16.237-7.398-16.237-15.414c0-13.048,11.713-19.212,29.492-19.212v-0.617c0-2.776-1.44-6.578-9.146-6.578
		c-5.138,0-10.583,1.747-13.872,3.802l-2.877-10.069c3.493-1.952,10.378-4.521,19.522-4.521c16.752,0,21.989,9.865,21.989,21.781
		V63.291L307.05,63.291z"/>
	<path fill="#FFFFFF" d="M322.465,41.199c0-6.27-0.207-11.508-0.412-16.031h13.562l0.722,6.988h0.312
		c2.051-3.291,7.087-8.116,15.514-8.116c10.276,0,17.979,6.883,17.979,21.677v29.697h-15.613V47.571
		c0-6.476-2.266-10.894-7.913-10.894c-4.316,0-6.887,2.981-8.016,5.859c-0.412,1.029-0.515,2.465-0.515,3.904v28.975h-15.618V41.199
		L322.465,41.199z"/>
	<polygon fill="#FFFFFF" points="385.662,75.415 385.662,25.168 401.281,25.168 401.281,75.415 385.662,75.415 	"/>
	<path fill="#FFFFFF" d="M416.793,41.199c0-6.27-0.205-11.508-0.411-16.031h13.562l0.721,6.988h0.311
		c2.054-3.291,7.089-8.116,15.516-8.116c10.274,0,17.983,6.883,17.983,21.677v29.697h-15.62V47.571
		c0-6.476-2.263-10.894-7.911-10.894c-4.316,0-6.886,2.981-8.018,5.859c-0.411,1.029-0.515,2.465-0.515,3.904v28.975h-15.617V41.199
		L416.793,41.199z"/>
	<polygon fill="#FFFFFF" points="479.988,75.415 479.988,25.168 495.608,25.168 495.608,75.415 479.988,75.415 	"/>
	<path fill="#FFFFFF" d="M3.251,22.125c0,0,1.708-5.814,10.444-13.081c6.5-5.408,9.691-6.632,11.766-7.753l0.862-1.302l-2.041,0.239
		c0,0-7.154,2.793-13.788,10.186C5.198,16.307,3.251,22.125,3.251,22.125L3.251,22.125z"/>
	<path fill="#FFFFFF" d="M59.785,15.48l-8.99-3.499c-1.294,0.407-2.612,0.852-3.968,1.368C26.906,20.95,8.233,37.848,5.128,51.076
		c-0.828,3.522-0.466,6.43,0.886,8.659l0.637,1.028c3.212,4.595,4.405,5.812,8.036,9.066c-2.349-2.269-3.253-5.607-2.228-9.972
		c2.989-12.743,20.973-29.012,40.165-36.336c0.59-0.226,1.169-0.436,1.741-0.639L59.785,15.48L59.785,15.48z"/>
	<path fill="#FFFFFF" d="M25.879,9.876l-5.333-0.995C10.262,15.898,2.254,25.017,0.453,32.675C0.295,33.34,0.19,33.98,0.133,34.59
		c-0.097,1.463-0.124,3.425-0.13,4.894c0.129,2.984,0.202,3.403,0.902,7.414l0.389,1.643C0.849,46.819,0.866,44.8,1.398,42.52
		C3.465,33.735,12.681,23.266,24.5,15.231L25.879,9.876L25.879,9.876z"/>
	<path fill="#FFFFFF" d="M31.56,70.299c2.009-8.562,13.482-19.342,26.237-24.958l5.031-8.073l-9.783-2.615
		C37.25,41.781,23.161,55.124,20.667,65.748c-1.266,5.397,0.687,9.131,4.914,10.875c0.854,0.352,2.021,0.755,2.889,1.08
		c3.645,1.085,4.58,1.296,8.366,1.876c0.615,0.066,1.369,0.122,2.079,0.176C33.252,79.193,30.254,75.862,31.56,70.299L31.56,70.299z
		"/>
	<path fill="#FFFFFF" d="M53.862,73.618c-0.335-0.496-0.444-1.147-0.253-1.959c0.003-0.02,0.013-0.042,0.019-0.059
		c0.005-0.02,0.012-0.037,0.016-0.058c0.691-2.61,4.093-5.836,7.937-7.623l3.207-6.568l-7.322-1.474
		c-7.831,4.206-14.439,10.865-15.71,16.28c-1.513,6.446,5.114,8.674,14.812,4.991l0.074-0.026c1.096-0.417,1.169-0.451,3.124-1.343
		c0.099-0.044,0.181-0.081,0.259-0.12C57.048,75.8,54.7,75.091,53.862,73.618L53.862,73.618z"/>
	<path fill="#FFFFFF" d="M134.203,103.969c-0.643,0.488-1.51,0.731-2.602,0.731c-1.541,0-2.754-0.647-3.642-1.945
		c-0.886-1.297-1.329-2.922-1.329-4.875c0-1.926,0.443-3.545,1.329-4.854c0.888-1.311,2.101-1.965,3.642-1.965
		c1.054,0,1.914,0.244,2.582,0.731l-0.425,1.041c-0.564-0.347-1.181-0.521-1.849-0.521c-0.81,0-1.479,0.276-2.014,0.828
		c-0.532,0.553-0.902,1.23-1.107,2.033c-0.206,0.803-0.309,1.705-0.309,2.706c0,1.568,0.283,2.875,0.848,3.921
		c0.565,1.048,1.419,1.569,2.563,1.569c0.668,0,1.284-0.173,1.85-0.52L134.203,103.969L134.203,103.969z"/>
	<path fill="#FFFFFF" d="M143.623,97.824c0-0.732-0.045-1.407-0.134-2.023c-0.091-0.617-0.242-1.204-0.453-1.763
		c-0.212-0.559-0.521-0.999-0.925-1.32c-0.405-0.32-0.896-0.481-1.475-0.481c-0.577,0-1.071,0.161-1.482,0.481
		c-0.411,0.321-0.723,0.762-0.936,1.32c-0.212,0.559-0.362,1.146-0.452,1.763c-0.09,0.616-0.135,1.291-0.135,2.023
		c0,3.711,1.002,5.567,3.005,5.567C142.628,103.391,143.623,101.535,143.623,97.824L143.623,97.824z M145.415,97.88
		c0,1.323-0.153,2.479-0.462,3.469s-0.829,1.794-1.561,2.418c-0.732,0.623-1.65,0.934-2.756,0.934c-1.631,0-2.838-0.626-3.621-1.878
		c-0.783-1.253-1.176-2.899-1.176-4.942c0-1.31,0.154-2.459,0.463-3.448s0.831-1.798,1.569-2.428
		c0.739-0.629,1.661-0.943,2.765-0.943c1.618,0,2.819,0.629,3.604,1.888C145.023,94.208,145.415,95.851,145.415,97.88L145.415,97.88
		z"/>
	<polygon fill="#FFFFFF" points="151.946,98.69 147.592,98.69 147.592,97.341 151.946,97.341 151.946,98.69 	"/>
	<path fill="#FFFFFF" d="M161.694,103.969c-0.643,0.488-1.509,0.731-2.602,0.731c-1.541,0-2.755-0.647-3.641-1.945
		c-0.886-1.297-1.329-2.922-1.329-4.875c0-1.926,0.443-3.545,1.329-4.854c0.886-1.311,2.1-1.965,3.641-1.965
		c1.054,0,1.914,0.244,2.582,0.731l-0.424,1.041c-0.565-0.347-1.182-0.521-1.85-0.521c-0.81,0-1.48,0.276-2.013,0.828
		c-0.533,0.553-0.902,1.23-1.107,2.033c-0.206,0.803-0.309,1.705-0.309,2.706c0,1.568,0.282,2.875,0.848,3.921
		c0.564,1.048,1.419,1.569,2.562,1.569c0.668,0,1.284-0.173,1.851-0.52L161.694,103.969L161.694,103.969z"/>
	<path fill="#FFFFFF" d="M169.901,95.068c0-1.015-0.229-1.763-0.685-2.244s-1.172-0.723-2.147-0.723
		c-0.655,0-1.156,0.097-1.503,0.289v5.549c0.257,0.076,0.636,0.115,1.137,0.115C168.834,98.054,169.901,97.059,169.901,95.068
		L169.901,95.068z M171.962,104.508h-2.004l-4.354-6.185h-0.038v6.185h-1.753V91.774c0.859-0.476,1.958-0.713,3.294-0.713
		c1.49,0,2.62,0.344,3.391,1.03c0.771,0.688,1.156,1.654,1.156,2.899c0,1.117-0.363,1.997-1.089,2.64s-1.705,0.977-2.938,1.002
		v0.038L171.962,104.508L171.962,104.508z"/>
	<polygon fill="#FFFFFF" points="180.362,104.508 174.216,104.508 174.216,91.253 180.362,91.253 180.362,92.449 175.989,92.449 
		175.989,97.072 179.919,97.072 179.919,98.247 175.989,98.247 175.989,103.314 180.362,103.314 180.362,104.508 	"/>
	<path fill="#FFFFFF" d="M188.781,99.48l-1.541-5.028c-0.104-0.308-0.188-0.598-0.251-0.866c-0.064-0.271-0.104-0.457-0.116-0.56
		l-0.019-0.174h-0.038c-0.052,0.373-0.188,0.906-0.405,1.6l-1.58,5.028H188.781L188.781,99.48z M192.152,104.508h-1.83l-1.252-3.97
		h-4.547l-1.291,3.97h-1.618l4.489-13.255h1.579L192.152,104.508L192.152,104.508z"/>
	<polygon fill="#FFFFFF" points="200.147,92.449 197.508,92.449 197.508,104.508 195.735,104.508 195.735,92.449 193.097,92.449 
		193.097,91.253 200.147,91.253 200.147,92.449 	"/>
	<polygon fill="#FFFFFF" points="204.038,104.508 202.267,104.508 202.267,91.253 204.038,91.253 204.038,104.508 	"/>
	<path fill="#FFFFFF" d="M216.58,104.508h-1.541l-5.645-9.672l-0.848-1.599h-0.039c0.039,0.54,0.059,1.086,0.059,1.638v9.633h-1.484
		V91.253h1.869l5.414,9.306l0.751,1.406h0.039c-0.039-0.424-0.058-0.912-0.058-1.464v-9.248h1.482V104.508L216.58,104.508z"/>
	<path fill="#FFFFFF" d="M228.024,103.969c-0.861,0.488-1.979,0.731-3.353,0.731c-1.631,0-2.967-0.591-4.007-1.771
		c-1.041-1.182-1.561-2.897-1.561-5.145c0-2.119,0.529-3.77,1.59-4.951c1.059-1.182,2.385-1.772,3.978-1.772
		c1.336,0,2.369,0.23,3.103,0.693l-0.521,1.098c-0.591-0.359-1.386-0.539-2.388-0.539c-1.259,0-2.229,0.466-2.91,1.396
		c-0.68,0.932-1.021,2.341-1.021,4.229c0,1.747,0.35,3.105,1.05,4.074c0.7,0.97,1.59,1.455,2.669,1.455
		c0.744,0,1.297-0.104,1.656-0.309v-4.97h-2.253v-1.118h3.968V103.969L228.024,103.969z"/>
	<path fill="#FFFFFF" d="M242.627,100.771c0,1.156-0.376,2.1-1.127,2.832c-0.752,0.732-1.712,1.098-2.88,1.098
		c-1.298,0-2.325-0.243-3.083-0.731l0.463-1.233c0.667,0.411,1.438,0.616,2.312,0.616c0.758,0,1.361-0.224,1.811-0.674
		c0.45-0.45,0.675-1.053,0.675-1.812c0-0.591-0.177-1.079-0.529-1.464c-0.354-0.386-0.947-0.745-1.782-1.079
		c-1.875-0.745-2.813-1.926-2.813-3.545c0-1.04,0.344-1.92,1.031-2.639c0.688-0.72,1.589-1.079,2.707-1.079
		c1.13,0,2.035,0.237,2.716,0.713l-0.424,1.117c-0.655-0.41-1.354-0.616-2.1-0.616c-0.693,0-1.233,0.208-1.618,0.626
		c-0.386,0.418-0.578,0.985-0.578,1.705c0,0.63,0.19,1.121,0.568,1.474c0.379,0.354,0.928,0.671,1.646,0.953
		C241.625,97.817,242.627,99.063,242.627,100.771L242.627,100.771z"/>
	<path fill="#FFFFFF" d="M252.491,97.824c0-0.732-0.045-1.407-0.135-2.023c-0.09-0.617-0.24-1.204-0.452-1.763
		s-0.521-0.999-0.925-1.32c-0.405-0.32-0.896-0.481-1.474-0.481c-0.578,0-1.073,0.161-1.484,0.481
		c-0.411,0.321-0.724,0.762-0.936,1.32s-0.362,1.146-0.452,1.763c-0.09,0.616-0.135,1.291-0.135,2.023
		c0,3.711,1.002,5.567,3.006,5.567C251.496,103.391,252.491,101.535,252.491,97.824L252.491,97.824z M254.283,97.88
		c0,1.323-0.154,2.479-0.462,3.469c-0.309,0.989-0.829,1.794-1.561,2.418c-0.732,0.623-1.65,0.934-2.755,0.934
		c-1.632,0-2.839-0.626-3.624-1.878c-0.782-1.253-1.175-2.899-1.175-4.942c0-1.31,0.154-2.459,0.463-3.448s0.831-1.798,1.57-2.428
		c0.738-0.629,1.659-0.943,2.765-0.943c1.618,0,2.818,0.629,3.603,1.888C253.891,94.208,254.283,95.851,254.283,97.88L254.283,97.88
		z"/>
	<polygon fill="#FFFFFF" points="262.625,104.508 256.864,104.508 256.864,91.253 258.636,91.253 258.636,103.314 262.625,103.314 
		262.625,104.508 	"/>
	<path fill="#FFFFFF" d="M272.99,100.732c0,1.156-0.379,2.11-1.137,2.861c-0.757,0.752-1.76,1.127-3.004,1.127
		c-1.247,0-2.245-0.375-2.997-1.127c-0.751-0.751-1.127-1.705-1.127-2.861v-9.479h1.772v9.46c0,0.809,0.237,1.447,0.713,1.917
		c0.475,0.469,1.054,0.703,1.733,0.703c0.681,0,1.256-0.234,1.725-0.703c0.469-0.47,0.703-1.108,0.703-1.917v-9.46h1.618V100.732
		L272.99,100.732z"/>
	<polygon fill="#FFFFFF" points="282.102,92.449 279.463,92.449 279.463,104.508 277.691,104.508 277.691,92.449 275.051,92.449 
		275.051,91.253 282.102,91.253 282.102,92.449 	"/>
	<polygon fill="#FFFFFF" points="285.994,104.508 284.221,104.508 284.221,91.253 285.994,91.253 285.994,104.508 	"/>
	<path fill="#FFFFFF" d="M296.377,97.824c0-0.732-0.045-1.407-0.135-2.023c-0.09-0.617-0.24-1.204-0.452-1.763
		s-0.521-0.999-0.925-1.32c-0.405-0.32-0.896-0.481-1.474-0.481c-0.578,0-1.073,0.161-1.483,0.481
		c-0.412,0.321-0.723,0.762-0.935,1.32c-0.211,0.559-0.363,1.146-0.453,1.763c-0.089,0.616-0.134,1.291-0.134,2.023
		c0,3.711,1.002,5.567,3.005,5.567C295.382,103.391,296.377,101.535,296.377,97.824L296.377,97.824z M298.169,97.88
		c0,1.323-0.153,2.479-0.462,3.469s-0.829,1.794-1.561,2.418c-0.732,0.623-1.65,0.934-2.755,0.934c-1.632,0-2.839-0.626-3.622-1.878
		c-0.784-1.253-1.176-2.899-1.176-4.942c0-1.31,0.154-2.459,0.464-3.448c0.307-0.989,0.831-1.798,1.569-2.428
		c0.738-0.629,1.659-0.943,2.765-0.943c1.618,0,2.818,0.629,3.603,1.888C297.778,94.208,298.169,95.851,298.169,97.88L298.169,97.88
		z"/>
	<path fill="#FFFFFF" d="M310.191,104.508h-1.541l-5.646-9.672l-0.848-1.599h-0.038c0.038,0.54,0.058,1.086,0.058,1.638v9.633
		h-1.483V91.253h1.869l5.413,9.306l0.752,1.406h0.039c-0.039-0.424-0.059-0.912-0.059-1.464v-9.248h1.483V104.508L310.191,104.508z"
		/>
	<path fill="#FFFFFF" d="M319.592,100.771c0,1.156-0.376,2.1-1.127,2.832s-1.712,1.098-2.88,1.098c-1.298,0-2.325-0.243-3.083-0.731
		l0.463-1.233c0.667,0.411,1.438,0.616,2.312,0.616c0.758,0,1.362-0.224,1.812-0.674s0.675-1.053,0.675-1.812
		c0-0.591-0.178-1.079-0.531-1.464c-0.353-0.386-0.947-0.745-1.781-1.079c-1.876-0.745-2.813-1.926-2.813-3.545
		c0-1.04,0.343-1.92,1.03-2.639c0.687-0.72,1.589-1.079,2.707-1.079c1.13,0,2.035,0.237,2.716,0.713l-0.424,1.117
		c-0.655-0.41-1.355-0.616-2.1-0.616c-0.693,0-1.233,0.208-1.618,0.626c-0.386,0.418-0.578,0.985-0.578,1.705
		c0,0.63,0.189,1.121,0.568,1.474c0.379,0.354,0.928,0.671,1.647,0.953C318.59,97.817,319.592,99.063,319.592,100.771
		L319.592,100.771z"/>
	<polygon fill="#FFFFFF" points="333.56,92.449 329.206,92.449 329.206,97.072 333.117,97.072 333.117,98.247 329.206,98.247 
		329.206,104.508 327.433,104.508 327.433,91.253 333.56,91.253 333.56,92.449 	"/>
	<path fill="#FFFFFF" d="M343.133,97.824c0-0.732-0.045-1.407-0.135-2.023c-0.09-0.617-0.24-1.204-0.452-1.763
		s-0.521-0.999-0.925-1.32c-0.405-0.32-0.896-0.481-1.474-0.481c-0.578,0-1.073,0.161-1.483,0.481
		c-0.412,0.321-0.723,0.762-0.935,1.32s-0.363,1.146-0.453,1.763c-0.09,0.616-0.135,1.291-0.135,2.023
		c0,3.711,1.002,5.567,3.006,5.567C342.139,103.391,343.133,101.535,343.133,97.824L343.133,97.824z M344.925,97.88
		c0,1.323-0.154,2.479-0.462,3.469c-0.309,0.989-0.829,1.794-1.561,2.418c-0.732,0.623-1.65,0.934-2.755,0.934
		c-1.632,0-2.839-0.626-3.622-1.878c-0.784-1.253-1.176-2.899-1.176-4.942c0-1.31,0.154-2.459,0.463-3.448
		c0.308-0.989,0.831-1.798,1.57-2.428c0.738-0.629,1.659-0.943,2.765-0.943c1.618,0,2.818,0.629,3.603,1.888
		C344.534,94.208,344.925,95.851,344.925,97.88L344.925,97.88z"/>
	<path fill="#FFFFFF" d="M353.577,95.068c0-1.015-0.228-1.763-0.685-2.244c-0.456-0.481-1.171-0.723-2.147-0.723
		c-0.655,0-1.156,0.097-1.503,0.289v5.549c0.257,0.076,0.636,0.115,1.137,0.115C352.51,98.054,353.577,97.059,353.577,95.068
		L353.577,95.068z M355.638,104.508h-2.004l-4.354-6.185h-0.038v6.185h-1.753V91.774c0.86-0.476,1.958-0.713,3.294-0.713
		c1.489,0,2.62,0.344,3.391,1.03c0.771,0.688,1.156,1.654,1.156,2.899c0,1.117-0.363,1.997-1.089,2.64
		c-0.725,0.643-1.705,0.977-2.938,1.002v0.038L355.638,104.508L355.638,104.508z"/>
	<path fill="#FFFFFF" d="M369.258,99.48l-1.542-5.028c-0.103-0.308-0.186-0.598-0.25-0.866c-0.064-0.271-0.104-0.457-0.115-0.56
		l-0.02-0.174h-0.039c-0.051,0.373-0.186,0.906-0.403,1.6l-1.581,5.028H369.258L369.258,99.48z M372.629,104.508h-1.83l-1.252-3.97
		H365l-1.291,3.97h-1.618l4.488-13.255h1.58L372.629,104.508L372.629,104.508z"/>
	<path fill="#FFFFFF" d="M386.422,100.944c0-1.04-0.32-1.795-0.963-2.264s-1.676-0.703-3.102-0.703h-0.886v5.279
		c0.487,0.205,1.11,0.308,1.868,0.308c0.938,0,1.686-0.209,2.244-0.626S386.422,101.856,386.422,100.944L386.422,100.944z
		 M385.999,94.509c0-1.618-0.925-2.428-2.773-2.428c-0.63,0-1.214,0.097-1.753,0.289v4.721h0.866c1.336,0,2.279-0.205,2.832-0.617
		C385.723,96.063,385.999,95.409,385.999,94.509L385.999,94.509z M388.214,100.925c0,1.271-0.437,2.218-1.31,2.842
		c-0.874,0.623-2.036,0.934-3.487,0.934c-1.516,0-2.724-0.243-3.622-0.731V91.792c0.848-0.487,1.997-0.731,3.448-0.731
		c1.413,0,2.511,0.305,3.295,0.915c0.783,0.61,1.175,1.41,1.175,2.398c0,0.874-0.257,1.574-0.771,2.1
		c-0.513,0.527-1.117,0.854-1.811,0.982v0.039c0.744,0.142,1.444,0.517,2.1,1.127C387.888,99.233,388.214,100,388.214,100.925
		L388.214,100.925z"/>
	<polygon fill="#FFFFFF" points="396.768,104.508 390.623,104.508 390.623,91.253 396.768,91.253 396.768,92.449 392.395,92.449 
		392.395,97.072 396.325,97.072 396.325,98.247 392.395,98.247 392.395,103.314 396.768,103.314 396.768,104.508 	"/>
	<polygon fill="#FFFFFF" points="405.283,92.449 402.644,92.449 402.644,104.508 400.872,104.508 400.872,92.449 398.232,92.449 
		398.232,91.253 405.283,91.253 405.283,92.449 	"/>
	<polygon fill="#FFFFFF" points="413.49,92.449 410.851,92.449 410.851,104.508 409.079,104.508 409.079,92.449 406.439,92.449 
		406.439,91.253 413.49,91.253 413.49,92.449 	"/>
	<polygon fill="#FFFFFF" points="421.697,104.508 415.551,104.508 415.551,91.253 421.697,91.253 421.697,92.449 417.324,92.449 
		417.324,97.072 421.253,97.072 421.253,98.247 417.324,98.247 417.324,103.314 421.697,103.314 421.697,104.508 	"/>
	<path fill="#FFFFFF" d="M430.194,95.068c0-1.015-0.229-1.763-0.685-2.244s-1.172-0.723-2.147-0.723
		c-0.655,0-1.156,0.097-1.503,0.289v5.549c0.257,0.076,0.636,0.115,1.137,0.115C429.127,98.054,430.194,97.059,430.194,95.068
		L430.194,95.068z M432.254,104.508h-2.003l-4.354-6.185h-0.038v6.185h-1.753V91.774c0.859-0.476,1.958-0.713,3.294-0.713
		c1.49,0,2.62,0.344,3.391,1.03c0.771,0.688,1.156,1.654,1.156,2.899c0,1.117-0.363,1.997-1.089,2.64s-1.705,0.977-2.938,1.002
		v0.038L432.254,104.508L432.254,104.508z"/>
	<polygon fill="#FFFFFF" points="445.952,92.449 441.598,92.449 441.598,97.072 445.508,97.072 445.508,98.247 441.598,98.247 
		441.598,104.508 439.825,104.508 439.825,91.253 445.952,91.253 445.952,92.449 	"/>
	<path fill="#FFFFFF" d="M456.451,100.732c0,1.156-0.379,2.11-1.137,2.861c-0.757,0.752-1.759,1.127-3.005,1.127
		s-2.244-0.375-2.996-1.127c-0.751-0.751-1.127-1.705-1.127-2.861v-9.479h1.772v9.46c0,0.809,0.237,1.447,0.713,1.917
		c0.475,0.469,1.053,0.703,1.733,0.703s1.256-0.234,1.725-0.703c0.47-0.47,0.703-1.108,0.703-1.917v-9.46h1.618V100.732
		L456.451,100.732z"/>
	<polygon fill="#FFFFFF" points="465.563,92.449 462.924,92.449 462.924,104.508 461.152,104.508 461.152,92.449 458.512,92.449 
		458.512,91.253 465.563,91.253 465.563,92.449 	"/>
	<path fill="#FFFFFF" d="M475.89,100.732c0,1.156-0.38,2.11-1.138,2.861c-0.758,0.752-1.76,1.127-3.005,1.127
		c-1.246,0-2.244-0.375-2.996-1.127c-0.751-0.751-1.127-1.705-1.127-2.861v-9.479h1.772v9.46c0,0.809,0.237,1.447,0.713,1.917
		c0.475,0.469,1.053,0.703,1.733,0.703s1.256-0.234,1.725-0.703c0.469-0.47,0.703-1.108,0.703-1.917v-9.46h1.619V100.732
		L475.89,100.732z"/>
	<path fill="#FFFFFF" d="M484.984,95.068c0-1.015-0.229-1.763-0.685-2.244s-1.172-0.723-2.147-0.723
		c-0.655,0-1.156,0.097-1.503,0.289v5.549c0.257,0.076,0.636,0.115,1.137,0.115C483.917,98.054,484.984,97.059,484.984,95.068
		L484.984,95.068z M487.044,104.508h-2.003l-4.354-6.185h-0.038v6.185h-1.753V91.774c0.859-0.476,1.958-0.713,3.294-0.713
		c1.49,0,2.62,0.344,3.391,1.03c0.771,0.688,1.156,1.654,1.156,2.899c0,1.117-0.363,1.997-1.089,2.64s-1.705,0.977-2.938,1.002
		v0.038L487.044,104.508L487.044,104.508z"/>
	<polygon fill="#FFFFFF" points="495.444,104.508 489.298,104.508 489.298,91.253 495.444,91.253 495.444,92.449 491.071,92.449 
		491.071,97.072 495,97.072 495,98.247 491.071,98.247 491.071,103.314 495.444,103.314 495.444,104.508 	"/>
</g>
</svg>
